<svg viewBox="0 0 1024 1024" version="1.1" xmlns="http://www.w3.org/2000/svg" p-id="4485" width="200" height="200"><path d="M510.72 64.64c247.424 0 448 200.576 448 448s-200.576 448-448 448-448-200.576-448-448 200.576-448 448-448zM637.76 544H384a128 128 0 0 0-128 130.24l0.032 29.792L256 704v87.68a379.008 379.008 0 0 0 448 47.392v2.528a406.4 406.4 0 0 0 64-41.6l-0.032-8.256 0.032-0.032v-118.4A128 128 0 0 0 637.76 544zM512 232.32a128 128 0 1 0 0 256 128 128 0 0 0 0-256z" fill="currentColor" p-id="4486"></path></svg>