<svg viewBox="0 0 1024 1024" version="1.1" xmlns="http://www.w3.org/2000/svg" p-id="6433" width="200" height="200"><path d="M512 85.290667c235.690667 0 426.752 191.061333 426.752 426.752 0 235.648-191.061333 426.709333-426.752 426.709333C276.309333 938.752 85.333333 747.690667 85.333333 512.042667 85.290667 276.352 276.309333 85.248 512 85.248zM637.44 704H386.602667c27.818667 102.997333 76.202667 170.752 125.44 170.752 49.194667 0 97.536-67.754667 125.354666-170.752z m-317.013333 0H204.16a364.032 364.032 0 0 0 174.677333 145.536c-22.272-34.986667-40.661333-78.762667-54.186666-128.64l-4.352-16.853333z m499.413333 0h-116.138667c-13.824 56.96-33.792 106.666667-58.581333 145.536a363.904 363.904 0 0 0 166.826667-133.418667l7.893333-12.074666zM302.677333 426.666667H159.402667l-0.213334 0.725333a363.648 363.648 0 0 0-9.898666 84.650667c0 45.056 8.192 88.192 23.210666 128h135.381334A866.176 866.176 0 0 1 298.666667 512c0-29.184 1.365333-57.770667 4.053333-85.376z m354.261334 0H367.061333a809.258667 809.258667 0 0 0 5.76 213.333333h278.357334a809.514667 809.514667 0 0 0 5.76-213.333333z m207.701333-0.042667h-143.274667c2.645333 27.648 4.053333 56.192 4.053334 85.418667 0 44.458667-3.242667 87.466667-9.301334 128h135.381334a361.984 361.984 0 0 0 23.253333-128c0-29.44-3.498667-58.026667-10.112-85.418667zM378.88 174.464l-0.981333 0.426667A363.989333 363.989333 0 0 0 181.333333 362.666667h130.048c13.397333-74.752 36.693333-139.861333 67.541334-188.16z m133.12-25.173333l-4.992 0.213333C453.12 154.453333 400.938667 239.872 376.746667 362.666667h270.592c-24.149333-122.453333-76.074667-207.744-129.92-213.12L512 149.333333z m133.12 25.173333l4.522667 7.466667c28.586667 47.445333 50.218667 109.738667 62.933333 180.778666h130.048a364.074667 364.074667 0 0 0-185.130667-183.04l-12.373333-5.162666z" fill="currentColor" p-id="6434"></path></svg>