<?xml version="1.0" standalone="no"?><!DOCTYPE svg><svg t="1723086079368" class="icon" viewBox="0 0 1024 1024" version="1.1" xmlns="http://www.w3.org/2000/svg" p-id="11964" xmlns:xlink="http://www.w3.org/1999/xlink" width="200" height="200"><path d="M799.786667 334.336H224.042667V16.896c0-9.301333 7.594667-16.896 16.896-16.896H782.933333c9.301333 0 16.853333 7.594667 16.853334 16.853333v317.44z" fill="#FFF7D7" p-id="11965"></path><path d="M224.042667 0h137.813333v302.592h-137.813333V0z m218.965333 0h137.813333v302.592h-137.813333V0z m218.965333 0h137.813334v302.592h-137.813334V0z" fill="#F94F46" p-id="11966"></path><path d="M85.333333 596.096c0 235.136 190.634667 425.856 425.813334 425.856a425.813333 425.813333 0 0 0 425.898666-425.813333A425.813333 425.813333 0 0 0 511.146667 170.24C275.968 170.24 85.333333 360.96 85.333333 596.096z" fill="#F3CA7E" p-id="11967"></path><path d="M213.077333 596.096a298.069333 298.069333 0 1 0 596.224 0 297.941333 297.941333 0 0 0-298.026666-297.984 298.112 298.112 0 0 0-298.197334 297.984z" fill="#E98F36" p-id="11968"></path><path d="M516.864 440.746667c28.458667 0 52.309333 7.936 70.656 24.618666 17.962667 16.768 27.136 38.016 27.136 64.384 0 25.941333-10.069333 49.28-29.226667 70.656-11.690667 12.074667-32.213333 28.032-61.866666 48.085334-32.256 21.333333-51.413333 40.106667-57.685334 56.490666h149.333334v40.106667H409.429333c0-29.610667 9.6-55.552 29.653334-78.122667 10.88-12.970667 33.450667-30.933333 67.285333-54.4 20.053333-14.165333 34.304-25.557333 42.581333-34.304 13.397333-15.104 20.48-31.36 20.48-48.938666 0-16.768-4.608-29.226667-13.781333-37.589334-9.173333-8.405333-22.954667-12.586667-40.533333-12.586666-18.858667 0-33.024 6.272-42.581334 19.242666-9.984 12.586667-15.104 30.549333-15.872 54.784h-45.653333c0.426667-33.408 10.112-60.16 28.885333-80.213333 19.242667-21.76 45.226667-32.256 76.928-32.256zM256.853333 354.133333a16.981333 16.981333 0 0 1-12.373333-5.376 16.938667 16.938667 0 0 1 0.682667-24.064c6.698667-6.272 13.568-12.245333 20.650666-18.048 3.413333-2.688 6.869333-5.504 10.282667-8.106666a16.896 16.896 0 0 1 23.850667 3.328 16.768 16.768 0 0 1-3.285334 23.722666c-3.2 2.432-6.314667 4.693333-9.386666 7.296-6.4 5.290667-12.8 10.666667-18.858667 16.469334a15.530667 15.530667 0 0 1-11.562667 4.778666z m613.248 216.874667a17.066667 17.066667 0 0 1-16.853333-14.677333 342.314667 342.314667 0 0 0-19.072-75.050667 347.605333 347.605333 0 0 0-168.448-188.288 347.733333 347.733333 0 0 0-306.304-4.992c-6.784 3.157333-13.354667 6.656-20.053333 10.154667a17.109333 17.109333 0 0 1-23.168-6.784 17.109333 17.109333 0 0 1 6.826666-23.168 387.925333 387.925333 0 0 1 189.44-47.488 379.946667 379.946667 0 0 1 168.832 41.6 381.824 381.824 0 0 1 185.130667 206.805333c9.856 26.538667 16.938667 54.186667 20.821333 82.218667a17.024 17.024 0 0 1-14.634666 19.2 5.845333 5.845333 0 0 1-2.517334 0.469333z" fill="#FFFFFF" p-id="11969"></path></svg>