<?xml version="1.0" standalone="no"?><!DOCTYPE svg><svg t="1723086091650" class="icon" viewBox="0 0 1024 1024" version="1.1" xmlns="http://www.w3.org/2000/svg" p-id="13125" xmlns:xlink="http://www.w3.org/1999/xlink" width="200" height="200"><path d="M799.786667 334.336H224.042667V16.896c0-9.301333 7.594667-16.896 16.896-16.896H782.933333c9.301333 0 16.853333 7.594667 16.853334 16.853333v317.44z" fill="#FFF7D7" p-id="13126"></path><path d="M224.042667 0h137.813333v302.592h-137.813333V0z m218.965333 0h137.813333v302.592h-137.813333V0z m218.965333 0h137.813334v302.592h-137.813334V0z" fill="#F94F46" p-id="13127"></path><path d="M85.333333 596.096c0 235.136 190.634667 425.856 425.813334 425.856a425.813333 425.813333 0 0 0 425.898666-425.813333A425.813333 425.813333 0 0 0 511.146667 170.24C275.968 170.24 85.333333 360.96 85.333333 596.096z" fill="#E8E9EA" p-id="13128"></path><path d="M213.077333 596.096a298.069333 298.069333 0 1 0 596.224 0 297.941333 297.941333 0 0 0-298.026666-297.984 298.112 298.112 0 0 0-298.197334 297.984z" fill="#A2ADB7" p-id="13129"></path><path d="M515.157333 440.746667c30.165333 0 53.888 7.04 72.362667 21.76 17.578667 14.634667 26.752 34.688 26.752 60.16 0 32.64-16.768 54.784-49.28 65.664 17.536 5.376 30.933333 13.781333 40.106667 24.661333 10.069333 11.264 15.061333 25.941333 15.061333 43.52 0 27.52-9.557333 50.176-28.458667 67.754667-20.053333 17.536-46.378667 26.752-78.122666 26.752-30.549333 0-55.210667-8.021333-73.557334-23.466667-20.864-17.578667-32.64-43.008-35.114666-76.544h45.994666c0.810667 20.053333 7.082667 35.498667 19.626667 46.378667 10.922667 10.112 25.088 15.104 42.666667 15.104 19.242667 0 34.730667-5.888 46.378666-16.768a50.346667 50.346667 0 0 0 15.488-37.248c0-17.536-5.376-30.549333-16.256-38.912-10.112-8.405333-25.088-12.586667-44.714666-12.586667h-21.76v-34.133333h21.333333c18.346667 0 32.256-4.181333 41.429333-12.074667 9.173333-7.978667 14.165333-19.626667 14.165334-34.730667 0-15.061333-4.565333-26.325333-12.970667-34.304-9.173333-8.405333-22.954667-12.074667-40.533333-12.074666-17.92 0-32.213333 4.565333-42.197334 13.738666-10.069333 9.216-16.256 22.954667-17.962666 41.429334H410.666667c2.517333-29.653333 13.397333-52.693333 33.066666-69.376 18.346667-16.853333 42.197333-24.746667 71.424-24.746667zM256.853333 354.133333a16.981333 16.981333 0 0 1-12.373333-5.376 16.938667 16.938667 0 0 1 0.682667-24.064c6.698667-6.272 13.568-12.245333 20.650666-18.048 3.413333-2.688 6.869333-5.504 10.282667-8.106666a16.896 16.896 0 0 1 23.850667 3.328 16.768 16.768 0 0 1-3.285334 23.722666c-3.2 2.432-6.314667 4.693333-9.386666 7.296-6.4 5.290667-12.8 10.666667-18.858667 16.469334a15.530667 15.530667 0 0 1-11.562667 4.778666z m613.248 216.874667a17.066667 17.066667 0 0 1-16.853333-14.677333 342.314667 342.314667 0 0 0-19.072-75.050667 347.605333 347.605333 0 0 0-168.448-188.288 347.733333 347.733333 0 0 0-306.304-4.992c-6.784 3.157333-13.354667 6.656-20.053333 10.154667a17.109333 17.109333 0 0 1-23.168-6.784 17.109333 17.109333 0 0 1 6.826666-23.168 387.925333 387.925333 0 0 1 189.44-47.488 379.946667 379.946667 0 0 1 168.832 41.6 381.824 381.824 0 0 1 185.130667 206.805333c9.856 26.538667 16.938667 54.186667 20.821333 82.218667a17.024 17.024 0 0 1-14.634666 19.2 5.845333 5.845333 0 0 1-2.517334 0.469333z" fill="#FFFFFF" p-id="13130"></path></svg>