<?xml version="1.0" standalone="no"?><!DOCTYPE svg><svg t="1723086065509" class="icon" viewBox="0 0 1024 1024" version="1.1" xmlns="http://www.w3.org/2000/svg" p-id="10784" xmlns:xlink="http://www.w3.org/1999/xlink" width="200" height="200"><path d="M796.4672 345.728H227.5328V39.04c0-8.96 7.4752-16.3328 16.6656-16.3328h535.6032c9.1904 0 16.64 7.3472 16.64 16.2816V345.728z" fill="#FFF7D7" p-id="10785"></path><path d="M227.5328 22.7584h136.192v296.064h-136.192V22.784z m216.3456 0h136.2432v296.064h-136.2432V22.784z m216.3968 0h136.192v296.064h-136.192V22.784z" fill="#F94F46" p-id="10786"></path><path d="M92.0576 601.4208C92.0576 831.7696 280.064 1018.624 512 1018.624s419.9424-186.7264 419.9424-417.2032c0-230.4512-187.9808-417.1776-419.9424-417.1776S92.0576 371.1232 92.0576 601.4208z" fill="#FEE701" p-id="10787"></path><path d="M200.4224 614.8608c0 163.5584 133.4272 296.1152 298.0608 296.1152 164.608 0 298.0608-132.5568 298.0608-296.1152-1.9456-163.5328-136.96-294.528-301.568-292.5824-161.8688 1.92-292.608 131.7888-294.528 292.608H200.448z" fill="#F5B319" p-id="10788"></path><path d="M497.664 458.5984h34.4576v290.8416h-45.7728V512c-18.0736 16.6656-41.1648 28.8512-68.8384 36.608v-43.9296c13.44-3.328 27.2896-8.96 42.4192-17.1008 15.104-9.0368 27.7248-18.3808 37.76-28.9792zM271.7952 368.128a17.28 17.28 0 0 1-12.4416-5.2736 16.2048 16.2048 0 0 1 0.6656-23.4496c6.7328-6.144 13.6448-11.9552 20.736-17.5872l10.3424-7.8848a17.3056 17.3056 0 0 1 23.936 3.2 16.0512 16.0512 0 0 1-3.2768 23.168 363.52 363.52 0 0 0-28.3392 23.1424 15.8464 15.8464 0 0 1-11.6224 4.6848z m615.68 211.3024a16.9728 16.9728 0 0 1-16.896-14.2848 325.632 325.632 0 0 0-19.1744-73.1136 342.4 342.4 0 0 0-169.1392-183.552 357.5808 357.5808 0 0 0-154.2912-37.0688 361.344 361.344 0 0 0-153.216 32.2048c-6.8096 3.1232-13.44 6.5024-20.1728 9.9328a17.4336 17.4336 0 0 1-23.2192-6.6304 16.4352 16.4352 0 0 1 6.8608-22.528c7.168-3.9168 14.6944-7.6032 22.016-10.9312a399.488 399.488 0 0 1 168.1152-35.3792c58.88 0.5888 116.864 14.4384 169.5744 40.5504 86.0928 42.496 152.0896 113.9712 185.856 201.4976a371.2 371.2 0 0 1 20.9152 80.128 16.7168 16.7168 0 0 1-14.6944 18.688 6.0416 6.0416 0 0 1-2.5344 0.4864z" fill="#FFFFFF" p-id="10789"></path></svg>