<svg viewBox="0 0 1024 1024" version="1.1" xmlns="http://www.w3.org/2000/svg" p-id="7649" width="200" height="200" fill="currentColor"><path d="M320 256A64 64 0 1 0 384 320 64 64 0 0 0 320 256z m581.12 200.96l-358.826667-359.253333A42.666667 42.666667 0 0 0 512 85.333333H128a42.666667 42.666667 0 0 0-42.666667 42.666667v384a42.666667 42.666667 0 0 0 12.373334 30.293333l359.253333 358.826667a128 128 0 0 0 180.906667 0L901.12 640a128 128 0 0 0 0-180.906667z m-60.16 120.32l-263.68 263.253333a42.666667 42.666667 0 0 1-60.16 0L170.666667 494.506667V170.666667h323.84l346.453333 346.453333a42.666667 42.666667 0 0 1 12.373333 30.293333 42.666667 42.666667 0 0 1-12.373333 29.866667z" p-id="7650"></path></svg>