<?xml version="1.0" standalone="no"?>
<!DOCTYPE svg PUBLIC "-//W3C//DTD SVG 20010904//EN"
 "http://www.w3.org/TR/2001/REC-SVG-20010904/DTD/svg10.dtd">
<svg version="1.0" xmlns="http://www.w3.org/2000/svg"
 width="512.000000pt" height="512.000000pt" viewBox="0 0 512.000000 512.000000"
 preserveAspectRatio="xMidYMid meet">
<metadata>
Created by potrace 1.14, written by Peter Selinger 2001-2017
</metadata>
<g transform="translate(0.000000,512.000000) scale(0.100000,-0.100000)"
fill="#000000" stroke="none">
<path d="M1 4334 c2 -5 124 -251 271 -545 146 -293 539 -1081 872 -1749 l605
-1215 1 553 0 553 -172 237 c-553 762 -785 1083 -878 1212 -57 80 -107 147
-110 150 -3 3 -51 68 -105 145 -55 77 -105 147 -112 155 -7 8 -94 128 -194
265 -100 138 -180 245 -178 239z"/>
<path d="M3489 4153 c-75 -104 -221 -305 -326 -448 -104 -143 -290 -397 -412
-565 -122 -168 -227 -312 -234 -320 -7 -9 -28 -38 -46 -65 -19 -28 -37 -52
-40 -55 -4 -3 -17 -21 -31 -40 -13 -19 -116 -161 -229 -315 -112 -154 -226
-310 -253 -347 l-49 -68 -1 -545 c0 -300 1 -547 3 -549 2 -2 399 786 882 1750
483 965 876 1754 875 1754 -2 0 -64 -84 -139 -187z"/>
<path d="M3588 4014 l-155 -316 52 -87 c29 -47 63 -106 77 -131 49 -88 67
-118 107 -185 23 -37 41 -68 41 -70 0 -2 23 -43 51 -92 28 -48 59 -102 69
-118 9 -17 48 -84 87 -150 38 -66 72 -127 76 -135 4 -8 17 -31 28 -50 34 -56
554 -954 606 -1047 104 -185 478 -830 485 -838 5 -5 0 15 -12 45 -12 30 -40
102 -62 160 -22 57 -54 143 -73 190 -18 47 -92 240 -165 430 -72 190 -136 354
-140 365 -14 30 -541 1398 -543 1410 -2 9 -58 153 -77 200 -9 20 -62 159 -205
533 -43 111 -81 202 -85 202 -3 0 -76 -142 -162 -316z"/>
</g>
</svg>
